<svg width="73.025mm" height="75.142mm" version="1.1" viewBox="0 0 73.025 75.142" xmlns="http://www.w3.org/2000/svg">
<rect id="antenna" x="27.252" y="-1.7007e-6" width="18.521" height="7.4083" rx="3.175" ry="3.175" fill="#f59e0b" stroke-width=".26458"/>
<rect id="head" x="-1.8914e-6" y="8.9958" width="73.025" height="66.146" rx="22.49" ry="22.49" fill="#2563eb" stroke-width=".26458"/>
<rect id="face" x="7.9375" y="21.431" width="57.15" height="41.275" rx="14.552" ry="14.552" fill="#0f172a" stroke-width=".26458"/>
<circle id="right_eye" cx="23.161" cy="38.629" r="6.35" fill="#38bdf8" stroke-width=".26458"/>
<circle id="left_eye" cx="49.62" cy="38.629" r="6.35" fill="#38bdf8" stroke-width=".26458"/>
<path id="mouth" d="m40.434 46.66a4.4272 3.9355 0 0 1-3.9145 2.1172 4.4272 3.9355 0 0 1-3.9284-2.1006l-1.7679 0.79324a6.3641 5.6572 0 0 0 5.6984 3.1078 6.3641 5.6572 0 0 0 5.6798-3.1347z" fill="#38bdf8"/>
</svg>
